<svg width="22" height="18" viewBox="0 0 22 18" fill="none" xmlns="http://www.w3.org/2000/svg">
<path d="M21.213 2.65617C20.4495 2.99364 19.6399 3.21541 18.811 3.31418C19.6838 2.79096 20.3369 1.96869 20.649 1.00017C19.829 1.48817 18.93 1.83018 17.994 2.01518C17.3646 1.34175 16.5304 0.895139 15.621 0.744761C14.7116 0.594382 13.7779 0.748667 12.9653 1.18363C12.1526 1.61859 11.5064 2.30986 11.1271 3.14997C10.7478 3.99008 10.6568 4.93196 10.868 5.82918C9.20489 5.74622 7.57783 5.31426 6.09257 4.56138C4.60731 3.8085 3.29707 2.75154 2.247 1.45918C1.87538 2.09767 1.68005 2.82342 1.681 3.56218C1.681 5.01218 2.42 6.29318 3.541 7.04318C2.8772 7.02105 2.2281 6.84182 1.647 6.52018L1.647 6.57118C1.64697 7.53705 1.98104 8.4732 2.59254 9.22085C3.20403 9.9685 4.05532 10.4816 5.002 10.6732C4.38567 10.8406 3.73928 10.8652 3.112 10.7452C3.37893 11.5766 3.89922 12.3037 4.6 12.8246C5.30079 13.3455 6.14696 13.6342 7.02001 13.6502C6.1522 14.3313 5.15871 14.8349 4.09628 15.1321C3.03385 15.4293 1.92328 15.5142 0.828005 15.3822C2.7397 16.6116 4.9651 17.2643 7.23801 17.2622C14.932 17.2622 19.138 10.8892 19.138 5.36218C19.138 5.18151 19.134 5.00118 19.126 4.82118C19.9444 4.22948 20.6507 3.4967 21.212 2.65717" fill="#FF7043"/>
</svg>
