<svg width="20" height="22" viewBox="0 0 20 22" fill="none" xmlns="http://www.w3.org/2000/svg">
<path d="M2 16.9807V8.70747C2 5.0741 2 3.25742 3.17157 2.12868C4.34315 0.999939 6.22876 0.999939 10 0.999939C13.7712 0.999939 15.6569 0.999939 16.8284 2.12868C18 3.25742 18 5.0741 18 8.70747V16.9807C18 19.2866 18 20.4395 17.2272 20.8522C15.7305 21.6513 12.9232 18.9851 11.59 18.1823C10.8168 17.7167 10.4302 17.4839 10 17.4839C9.5698 17.4839 9.1832 17.7167 8.41 18.1823C7.0768 18.9851 4.26947 21.6513 2.77285 20.8522C2 20.4395 2 19.2866 2 16.9807Z" stroke="white" stroke-linecap="round" stroke-linejoin="round"/>
</svg>
