<svg width="40" height="41" viewBox="0 0 40 41" fill="none" xmlns="http://www.w3.org/2000/svg">
<path d="M20.0003 0.916687C9.19033 0.916687 0.416992 9.69002 0.416992 20.5C0.416992 31.31 9.19033 40.0834 20.0003 40.0834C30.8103 40.0834 39.5837 31.31 39.5837 20.5C39.5837 9.69002 30.8103 0.916687 20.0003 0.916687ZM20.0003 8.75002C23.7799 8.75002 26.8545 11.8246 26.8545 15.6042C26.8545 19.3838 23.7799 22.4584 20.0003 22.4584C16.2207 22.4584 13.1462 19.3838 13.1462 15.6042C13.1462 11.8246 16.2207 8.75002 20.0003 8.75002ZM20.0003 36.1667C16.0249 36.1667 11.3249 34.5609 7.97616 30.5267C11.4068 27.8364 15.6406 26.3743 20.0003 26.3743C24.3601 26.3743 28.5938 27.8364 32.0245 30.5267C28.6757 34.5609 23.9757 36.1667 20.0003 36.1667Z" fill="#505050"/>
</svg>
