<svg width="24" height="17" viewBox="0 0 24 17" fill="none" xmlns="http://www.w3.org/2000/svg">
<path d="M12.0765 -0.00130081H12.21C13.443 0.00319919 19.6905 0.0481995 21.375 0.501199C21.8842 0.639452 22.3483 0.908933 22.7207 1.28271C23.0932 1.65649 23.361 2.12148 23.4975 2.6312C23.649 3.2012 23.7555 3.9557 23.8275 4.7342L23.8425 4.8902L23.8755 5.2802L23.8875 5.4362C23.985 6.8072 23.997 8.0912 23.9985 8.3717V8.4842C23.997 8.7752 23.9835 10.1462 23.8755 11.5742L23.8635 11.7317L23.85 11.8877C23.775 12.7457 23.664 13.5977 23.4975 14.2247C23.361 14.7344 23.0932 15.1994 22.7207 15.5732C22.3483 15.947 21.8842 16.2164 21.375 16.3547C19.635 16.8227 13.0215 16.8557 12.105 16.8572H11.892C11.4285 16.8572 9.5115 16.8482 7.5015 16.7792L7.2465 16.7702L7.116 16.7642L6.8595 16.7537L6.603 16.7432C4.938 16.6697 3.3525 16.5512 2.622 16.3532C2.11294 16.2151 1.64902 15.9458 1.27658 15.5723C0.904129 15.1988 0.636185 14.7341 0.4995 14.2247C0.333 13.5992 0.222 12.7457 0.147 11.8877L0.135 11.7302L0.123 11.5742C0.0485451 10.5578 0.00752298 9.53927 0 8.5202L0 8.3357C0.003 8.0132 0.015 6.8987 0.096 5.6687L0.1065 5.5142L0.111 5.4362L0.123 5.2802L0.156 4.8902L0.171 4.7342C0.243 3.9557 0.3495 3.1997 0.501 2.6312C0.637456 2.12148 0.905298 1.65649 1.27776 1.28271C1.65022 0.908933 2.11426 0.639452 2.6235 0.501199C3.354 0.306199 4.9395 0.186199 6.6045 0.111199L6.8595 0.100699L7.1175 0.0916994L7.2465 0.0871994L7.503 0.0766995C8.93056 0.0308046 10.3587 0.00530183 11.787 0.000199259L12.0765 -0.00130081ZM9.6 4.8137V12.0407L15.8355 8.4287L9.6 4.8137Z" fill="#FF7043"/>
</svg>
