<svg width="20" height="20" viewBox="0 0 20 20" fill="none" xmlns="http://www.w3.org/2000/svg">
<path d="M11.028 0.000188807C12.153 0.00318861 12.724 0.00918851 13.217 0.0231884L13.411 0.0301884C13.635 0.0381883 13.856 0.0481883 14.123 0.0601882C15.187 0.110188 15.913 0.278188 16.55 0.525188C17.21 0.779188 17.766 1.12319 18.322 1.67819C18.8307 2.17792 19.2241 2.78266 19.475 3.45019C19.722 4.08719 19.89 4.81319 19.94 5.87819C19.952 6.14419 19.962 6.36519 19.97 6.59019L19.976 6.78419C19.991 7.27619 19.997 7.84719 19.999 8.97219L20 9.71819L20 11.0282C20.0024 11.7576 19.9947 12.487 19.977 13.2162L19.971 13.4102C19.963 13.6352 19.953 13.8562 19.941 14.1222C19.891 15.1872 19.721 15.9122 19.475 16.5502C19.2241 17.2177 18.8307 17.8225 18.322 18.3222C17.8222 18.8309 17.2175 19.2244 16.55 19.4752C15.913 19.7222 15.187 19.8902 14.123 19.9402L13.411 19.9702L13.217 19.9762C12.724 19.9902 12.153 19.9972 11.028 19.9992L10.282 20.0002L8.97296 20.0002C8.24322 20.0028 7.51349 19.9951 6.78396 19.9772L6.58996 19.9712C6.35257 19.9622 6.11524 19.9519 5.87796 19.9402C4.81396 19.8902 4.08796 19.7222 3.44996 19.4752C2.78279 19.2242 2.1784 18.8308 1.67896 18.3222C1.16991 17.8226 0.77607 17.2178 0.524961 16.5502C0.277961 15.9132 0.109961 15.1872 0.0599609 14.1222L0.0299608 13.4102L0.0249609 13.2162C0.00652677 12.487 -0.00180759 11.7576 -3.96264e-05 11.0282L-3.99859e-05 8.97219C-0.00280801 8.24279 0.00452598 7.51339 0.0219597 6.78419L0.0289596 6.59019C0.0369596 6.36519 0.0469595 6.14419 0.0589595 5.87819C0.108959 4.81319 0.276959 4.08819 0.523959 3.45019C0.775653 2.78239 1.17018 2.17763 1.67996 1.67819C2.17911 1.16974 2.78315 0.776264 3.44996 0.52519C4.08796 0.27819 4.81296 0.11019 5.87796 0.0601896C6.14396 0.0481896 6.36596 0.0381896 6.58996 0.0301896L6.78396 0.0241895C7.51315 0.00642213 8.24255 -0.0012454 8.97196 0.00118909L11.028 0.000188807ZM9.99996 5.00019C8.67388 5.00019 7.40211 5.52697 6.46443 6.46466C5.52674 7.40234 4.99996 8.67411 4.99996 10.0002C4.99996 11.3263 5.52675 12.598 6.46443 13.5357C7.40211 14.4734 8.67388 15.0002 9.99996 15.0002C11.326 15.0002 12.5978 14.4734 13.5355 13.5357C14.4732 12.598 15 11.3263 15 10.0002C15 8.67411 14.4732 7.40234 13.5355 6.46465C12.5978 5.52697 11.326 5.00019 9.99996 5.00019ZM9.99996 7.00019C10.3939 7.00012 10.784 7.07766 11.148 7.22836C11.5121 7.37906 11.8428 7.59999 12.1214 7.87852C12.4 8.15704 12.6211 8.48772 12.7719 8.85168C12.9227 9.21563 13.0004 9.60572 13.0005 9.99969C13.0005 10.3937 12.923 10.7838 12.7723 11.1478C12.6216 11.5118 12.4007 11.8425 12.1221 12.1212C11.8436 12.3998 11.5129 12.6208 11.149 12.7716C10.785 12.9225 10.3949 13.0001 10.001 13.0002C9.20531 13.0002 8.44225 12.6841 7.87964 12.1215C7.31703 11.5589 7.00096 10.7958 7.00096 10.0002C7.00096 9.20454 7.31703 8.44148 7.87964 7.87887C8.44225 7.31626 9.20531 7.00019 10.001 7.00019M15.251 3.50019C14.9194 3.50019 14.6015 3.63188 14.3671 3.8663C14.1327 4.10073 14.001 4.41867 14.001 4.75019C14.001 5.08171 14.1327 5.39965 14.3671 5.63407C14.6015 5.86849 14.9194 6.00019 15.251 6.00019C15.5825 6.00019 15.9004 5.86849 16.1348 5.63407C16.3693 5.39965 16.501 5.08171 16.501 4.75019C16.501 4.41867 16.3693 4.10072 16.1348 3.8663C15.9004 3.63188 15.5825 3.50019 15.251 3.50019Z" fill="#FF7043"/>
</svg>
